<svg id="Capa_1" enable-background="new 0 0 511.972 511.972" height="512" viewBox="0 0 511.972 511.972" width="512" xmlns="http://www.w3.org/2000/svg"><g><path d="m446.783 264.956-85.952-85.953c-19.646-19.645-45.765-30.464-73.548-30.464-15.553 0-30.583 3.393-44.25 9.824l-114.624-114.604c-2.93-2.929-7.679-2.928-10.606.001-2.929 2.929-2.929 7.678.001 10.606l111.688 111.67c-5.602 3.758-10.878 8.09-15.756 12.967-4.914 4.914-9.227 10.204-12.95 15.774l-145.117-145.118c-3.833-3.833-5.943-8.931-5.943-14.357 0-5.419 2.11-10.514 5.945-14.349 3.836-3.839 8.936-5.953 14.36-5.953s10.523 2.114 14.361 5.956l12.29 12.29c2.93 2.929 7.678 2.929 10.607 0s2.929-7.677 0-10.606l-12.288-12.289c-6.669-6.675-15.537-10.351-24.97-10.351s-18.302 3.676-24.969 10.349c-6.665 6.666-10.336 15.528-10.336 24.953 0 9.432 3.671 18.297 10.336 24.963l148.072 148.072c-6.762 14.436-10.025 30.117-9.795 45.756l-30.527 30.536c-25.153 25.153-39.006 58.598-39.006 94.173 0 35.571 13.853 69.019 39.006 94.183 24.932 24.931 58.076 38.777 93.329 38.987h.046c4.121 0 7.475-3.329 7.499-7.456.024-4.142-3.313-7.52-7.455-7.544-16.421-.098-32.324-3.535-46.93-9.974 6.637-.62 13.646-2.001 20.966-4.182 12.235-3.647 24.757-9.334 37.081-16.741 12.42 8.754 26.2 15.308 40.658 19.337-7.614 3.645-15.623 6.485-23.912 8.428-4.032.946-6.535 4.981-5.59 9.014.811 3.457 3.892 5.79 7.295 5.79.567 0 1.144-.064 1.719-.199 24.074-5.644 46.077-17.905 63.632-35.459l30.492-30.493c.531.008 1.062.019 1.594.019 27.782 0 53.901-10.819 73.547-30.464 19.645-19.645 30.464-45.764 30.464-73.546s-10.82-53.902-30.464-73.546zm-283.364 30.279 21.973-21.979c2.988 14.819 9.218 29.104 18.691 41.714l-10.469 10.469c-9.339 9.341-17.699 19.258-24.926 29.411-8.882-14.041-14.708-29.773-16.935-46.064 3.513-4.76 7.406-9.291 11.666-13.551zm86.912 145.405-27.29-27.29 38.974-38.974 37.452 37.452-9.727 9.727c-10.104 10.104-20.833 18.881-31.662 26.168-2.672-2.24-5.261-4.598-7.747-7.083zm-37.896-37.897-27.289-27.289c-2.506-2.506-4.882-5.12-7.14-7.818 7.354-10.853 16.171-21.545 26.215-31.592l9.731-9.731 37.457 37.456zm-53.656 53.655c-3.55-5.95-5.351-13.38-5.351-22.2 0-16.013 5.862-34.554 16.313-53.202 1.554 1.724 3.15 3.416 4.798 5.064l27.289 27.289zm-18.418-128.694c4.033 14.508 10.605 28.333 19.388 40.786-11.893 19.818-19.276 39.958-20.945 58.042-6.552-14.842-9.998-31.021-9.998-47.729 0-17.985 3.995-35.353 11.555-51.099zm51.087 144.64c-8.473 0-15.978-1.736-22.054-5.346l43.041-43.041 27.289 27.289c1.615 1.615 3.273 3.18 4.961 4.705-19.056 10.615-37.756 16.393-53.237 16.393zm139.094-9.965c-4.248 4.247-8.797 8.132-13.588 11.657-16.256-2.228-31.958-8.046-45.979-16.911 10.152-7.249 20.039-15.629 29.374-24.963l10.454-10.454c12.375 9.326 26.556 15.696 41.67 18.741zm105.633-60.937c-16.812 16.812-39.164 26.07-62.939 26.07-23.776 0-46.129-9.259-62.939-26.07l-85.953-85.952c-34.706-34.706-34.706-91.175 0-125.881 16.812-16.812 39.164-26.07 62.939-26.07 23.776 0 46.129 9.259 62.94 26.07l85.952 85.953c16.812 16.812 26.071 39.164 26.071 62.94s-9.258 46.129-26.071 62.94z"/><path d="m424.433 287.306-85.953-85.953c-13.653-13.653-31.835-21.172-51.196-21.172-.002 0 0 0-.001 0-19.36 0-37.544 7.52-51.196 21.172-13.655 13.656-21.176 31.839-21.175 51.2.001 19.359 7.521 37.54 21.175 51.193l85.952 85.953c14.115 14.115 32.656 21.172 51.197 21.172s37.082-7.058 51.197-21.173c28.228-28.229 28.228-74.163 0-102.392zm-10.828 10.386-36.589 36.589c-3.384-4.49-7.092-8.767-11.114-12.788l-25.499-25.499 35.751-35.751zm-48.057-48.057-35.751 35.751-25.503-25.503c-4.021-4.021-8.298-7.729-12.789-11.114l36.589-36.589zm-46.359 46.358-34.821 34.821-37.454-37.454 33.848-33.848c4.561 3.297 8.895 6.948 12.924 10.977zm-31.906-100.812c10.313 0 20.195 2.699 28.855 7.742l-37.422 37.423c-12.986-7.423-27.283-12.401-42.196-14.62 2.649-5.011 6.058-9.65 10.175-13.767 10.818-10.82 25.233-16.778 40.588-16.778zm-56.029 44.988c12.786 1.524 25.103 5.354 36.398 11.241l-29.995 29.996c-5.044-8.66-7.744-18.542-7.745-28.853-.001-4.22.465-8.362 1.342-12.384zm63.721 101.253 34.821-34.821 25.499 25.499c4.03 4.03 7.681 8.364 10.978 12.924l-33.849 33.849zm49.409 46.704 29.994-29.994c5.887 11.293 9.718 23.605 11.244 36.387-13.871 3.044-28.654.919-41.238-6.393zm69.442-9.034c-4.162 4.162-8.81 7.547-13.762 10.161-2.221-14.908-7.2-29.2-14.623-42.184l37.418-37.418c12.764 21.966 9.758 50.649-9.033 69.441z"/></g></svg>